# xmcd
#
# Track frame offsets: 
#        150
#        25691
#        56581
#        81293
#        85411
#        98181
#        107818
#        131968
#        160406
#        190054
#        209669
#        221144
#        231669
#        262744
#
# Disc length: 3819 seconds
#
# Revision: 0
# Processed by: cddbd v1.5.2PL0 Copyright (c) Steve Scherf et al.
# Submitted via: ExactAudioCopy v1.0b3
#
DISCID=ce0ee90e
DTITLE=Pearl Jam - Live On Air [CD 4 - San Diego, Nov. 7th, 1995)
DYEAR=2016
DGENRE=Hard Rock
TTITLE0=Jeremy
TTITLE1=Not For You
TTITLE2=I Got Shit
TTITLE3=Lukin
TTITLE4=Whipping
TTITLE5=This Boy
TTITLE6=Alive
TTITLE7=Black
TTITLE8=Blood
TTITLE9=Spin The Black Circle
TTITLE10=Leaving Here
TTITLE11=I Can't Explain
TTITLE12=Porch
TTITLE13=Yellow Ledbetter
EXTD=
EXTT0=
EXTT1=
EXTT2=
EXTT3=
EXTT4=
EXTT5=
EXTT6=
EXTT7=
EXTT8=
EXTT9=
EXTT10=
EXTT11=
EXTT12=
EXTT13=
PLAYORDER=
